<svg xmlns="http://www.w3.org/2000/svg" viewBox="0 0 512 512" role="img" aria-labelledby="title desc">
  <title id="title">SeddleUp Favicon</title>
  <desc id="desc">Circular SeddleUp favicon with white route-shaped S.</desc>
  <circle cx="256" cy="256" r="248" fill="#0F172A"/>
  <path d="M354 86c-54 0-100 17-138 50-31 27-43 60-31 87 16 36 61 43 103 51 43 8 84 15 91 44 5 19-7 39-34 56-32 20-82 31-145 31H94"
        fill="none" stroke="#FFFFFF" stroke-width="72" stroke-linecap="round" stroke-linejoin="round"/>
  <path d="M354 86c-54 0-100 17-138 50-31 27-43 60-31 87 16 36 61 43 103 51 43 8 84 15 91 44 5 19-7 39-34 56-32 20-82 31-145 31H94"
        fill="none" stroke="#0F172A" stroke-width="14" stroke-linecap="round" stroke-linejoin="round" stroke-dasharray="34 30" opacity=".9"/>
  <circle cx="94" cy="405" r="29" fill="#FFFFFF"/>
  <circle cx="94" cy="405" r="15" fill="#0F172A"/>
  <path d="M390 52c-39 0-70 31-70 70 0 52 70 126 70 126s70-74 70-126c0-39-31-70-70-70z" fill="#FFFFFF"/>
  <circle cx="390" cy="122" r="24" fill="#0F172A"/>
</svg>